<svg width="32" height="32" viewBox="0 0 32 32" fill="none" xmlns="http://www.w3.org/2000/svg">
  <!-- Background circle for contrast -->
  <circle cx="16" cy="16" r="15" fill="#F8FAFC" stroke="#E2E8F0" stroke-width="2"/>
  
  <!-- Bulbul Bird Body -->
  <ellipse cx="16" cy="19" rx="6" ry="7" fill="#3B82F6"/>
  
  <!-- Bird Wing -->
  <path d="M10 17C10 17 12 15 15 16C17 17 18 19 16 20C14 21 11 19 10 17Z" fill="#1E40AF"/>
  
  <!-- Bird Head -->
  <circle cx="16" cy="11" r="4.5" fill="#2563EB"/>
  
  <!-- Bird Beak -->
  <path d="M20 11L23 9.5L21.5 12Z" fill="#F59E0B"/>
  
  <!-- Bird Eye -->
  <circle cx="17.5" cy="10" r="1" fill="white"/>
  <circle cx="17.5" cy="10" r="0.6" fill="black"/>
  
  <!-- Knowledge Crown/Crest -->
  <path d="M12 7L13.5 5L15 7L16 5L17 7L18.5 5L20 7L18.5 8L17 8L16 8L15 8L13.5 8Z" fill="#10B981"/>
  
  <!-- Book Symbol at bottom -->
  <rect x="8" y="24" width="6" height="3" rx="0.5" fill="#059669"/>
  <rect x="18" y="24" width="6" height="3" rx="0.5" fill="#059669"/>
  <line x1="8" y1="25.5" x2="14" y2="25.5" stroke="white" stroke-width="0.3"/>
  <line x1="18" y1="25.5" x2="24" y2="25.5" stroke="white" stroke-width="0.3"/>
  
  <!-- Tail feathers -->
  <path d="M22 21C22 21 24 20 25 22C26 24 24 25 23 25C22 25 21 23 22 21Z" fill="#6366F1" opacity="0.8"/>
</svg> 